# xmcd
#
# Track frame offsets: 
#        150
#        24064
#        51096
#        78004
#        102876
#        131944
#        158178
#        183885
#        205914
#        228516
#
# Disc length: 3479 seconds
#
# Revision: 0
# Processed by: cddbd v1.5.2PL0 Copyright (c) Steve Scherf et al.
# Submitted via: ExactAudioCopy v1.0b3
#
DISCID=740d950a
DTITLE=Thanh Tuyen - 36 Nam Tieng hat Gui Nguoi
DYEAR=2001
DGENRE=
TTITLE0=Anh biet em di chang tro ve
TTITLE1=Ve dat Mui
TTITLE2=Rung la thap
TTITLE3=Mua le
TTITLE4=Dau xot ly chim quyen
TTITLE5=Noi buon hoa phuong
TTITLE6=Vung troi ngay do
TTITLE7=Co le
TTITLE8=Xin thoi gian qua mau
TTITLE9=Han Mac Tu
EXTD=
EXTT0=
EXTT1=
EXTT2=
EXTT3=
EXTT4=
EXTT5=
EXTT6=
EXTT7=
EXTT8=
EXTT9=
PLAYORDER=
